M48
;Layer_Color=9474304
;FILE_FORMAT=2:5
INCH,LZ
;TYPE=PLATED
T1F00S00C0.02756
T2F00S00C0.03500
T3F00S00C0.03543
T4F00S00C0.03937
%
T01
X05855Y0216
X06055
X05955Y0226
T02
X04415Y0228
X04515
T03
X04695Y0167
X04795
X04895
X04995
X05095
X05195
X05295
X05395
X05495
X05595
X05695
X04595
Y04005
X04695
X04795
X04895
X04995
X05095
X05195
X05295
X05395
X05495
X05595
X05695
T04
X047Y0276
X048
X049
X05
X051
X052
X053
X054
X055
X046
X045
X044
X043
X042
X041
X04
X0399091Y0219
Y0201284
X03735
Y0219
M30
