G04 Layer_Physical_Order=1*
G04 Layer_Color=255*
%FSLAX25Y25*%
%MOIN*%
G70*
G01*
G75*
%ADD10R,0.03543X0.07087*%
%ADD11C,0.02000*%
%ADD12C,0.07087*%
%ADD13R,0.06500X0.06500*%
%ADD14C,0.06500*%
%ADD15C,0.06000*%
%ADD16R,0.05906X0.05906*%
%ADD17C,0.05906*%
G04:AMPARAMS|DCode=18|XSize=70.87mil|YSize=70.87mil|CornerRadius=8.86mil|HoleSize=0mil|Usage=FLASHONLY|Rotation=180.000|XOffset=0mil|YOffset=0mil|HoleType=Round|Shape=RoundedRectangle|*
%AMROUNDEDRECTD18*
21,1,0.07087,0.05315,0,0,180.0*
21,1,0.05315,0.07087,0,0,180.0*
1,1,0.01772,-0.02658,0.02658*
1,1,0.01772,0.02658,0.02658*
1,1,0.01772,0.02658,-0.02658*
1,1,0.01772,-0.02658,-0.02658*
%
%ADD18ROUNDEDRECTD18*%
D10*
X451709Y192500D02*
D03*
X440291D02*
D03*
D11*
X451000Y261500D02*
X522000D01*
X389500D02*
X451000D01*
X451500Y261000D01*
Y228000D02*
Y261000D01*
X451709Y192500D02*
Y206291D01*
X441500Y216500D02*
X451709Y206291D01*
X441500Y216500D02*
Y228000D01*
X455500Y181000D02*
X469500Y167000D01*
X445500Y181000D02*
X455500D01*
X440291Y186209D02*
X445500Y181000D01*
X440291Y186209D02*
Y192500D01*
X520000Y276000D02*
X530000Y286000D01*
X560000D01*
X605500Y240500D01*
Y216000D02*
Y240500D01*
X567500Y216000D02*
X585500D01*
X522000Y261500D02*
X567500Y216000D01*
X389500Y330500D02*
X459500Y400500D01*
X389500Y261500D02*
Y330500D01*
X522000Y261500D02*
X530000Y269500D01*
Y276000D01*
X479500Y400500D02*
X520000Y360000D01*
Y276000D02*
Y360000D01*
D12*
X373500Y219000D02*
D03*
X399091D02*
D03*
X373500Y201284D02*
D03*
X399091D02*
D03*
X540000Y276000D02*
D03*
X530000D02*
D03*
X520000D02*
D03*
X510000D02*
D03*
X500000D02*
D03*
X490000D02*
D03*
X480000D02*
D03*
X470000D02*
D03*
X460000D02*
D03*
X420000D02*
D03*
X430000D02*
D03*
X440000D02*
D03*
X450000D02*
D03*
X400000D02*
D03*
X410000D02*
D03*
D13*
X441500Y228000D02*
D03*
D14*
X451500D02*
D03*
D15*
X605500Y216000D02*
D03*
X595500Y226000D02*
D03*
X585500Y216000D02*
D03*
D16*
X459500Y167000D02*
D03*
X569500Y400500D02*
D03*
D17*
X469500Y167000D02*
D03*
X479500D02*
D03*
X489500D02*
D03*
X499500D02*
D03*
X509500D02*
D03*
X519500D02*
D03*
X529500D02*
D03*
X539500D02*
D03*
X549500D02*
D03*
X559500D02*
D03*
X569500D02*
D03*
X559500Y400500D02*
D03*
X549500D02*
D03*
X539500D02*
D03*
X529500D02*
D03*
X519500D02*
D03*
X509500D02*
D03*
X499500D02*
D03*
X489500D02*
D03*
X479500D02*
D03*
X469500D02*
D03*
X459500D02*
D03*
D18*
X550000Y276000D02*
D03*
M02*
